<?xml version="1.0" encoding="UTF-8"?>
<svg version="1.1" xmlns="http://www.w3.org/2000/svg" width="225" height="225">
<path d="M0 0 C74.25 0 148.5 0 225 0 C225 74.25 225 148.5 225 225 C150.75 225 76.5 225 0 225 C0 150.75 0 76.5 0 0 Z " fill="#33063C" transform="translate(0,0)"/>
<path d="M0 0 C9.20644131 7.33257641 16.55532685 15.80075178 22.0625 26.1875 C22.58714844 27.12335938 23.11179688 28.05921875 23.65234375 29.0234375 C30.0229762 40.89243977 31.08999716 51.57246026 32.0625 65.1875 C10.9425 65.1875 -10.1775 65.1875 -31.9375 65.1875 C-32.9275 60.7325 -32.9275 60.7325 -33.9375 56.1875 C-37.06671455 50.37610155 -41.7165991 45.6562841 -47.9375 43.1875 C-55.18730406 42.33930864 -62.2536492 41.99125347 -68.2578125 46.578125 C-74.04959195 52.12745787 -76.8659405 57.20622922 -77.9375 65.1875 C-78.9275 65.1875 -79.9175 65.1875 -80.9375 65.1875 C-81.7033375 56.38036876 -78.08610192 48.79847721 -72.63671875 42.00390625 C-67.13670875 36.12458522 -60.15592192 31.37485138 -51.95703125 30.68359375 C-50.55524534 30.63948334 -49.15247307 30.62067088 -47.75 30.625 C-46.64168823 30.62536255 -46.64168823 30.62536255 -45.51098633 30.62573242 C-36.62601688 30.90010844 -29.84315364 34.82716746 -22.9375 40.1875 C-32.26886935 30.90960555 -42.38664731 26.88757032 -55.43237305 26.64868164 C-63.44684771 26.80682045 -69.12826943 30.21624245 -75.9375 34.1875 C-76.9275 34.5175 -77.9175 34.8475 -78.9375 35.1875 C-79.2675 36.1775 -79.5975 37.1675 -79.9375 38.1875 C-80.68 38.8475 -81.4225 39.5075 -82.1875 40.1875 C-88.84207506 46.62990021 -90.79218959 56.3498062 -91.9375 65.1875 C-93.2575 65.1875 -94.5775 65.1875 -95.9375 65.1875 C-96.7580133 52.87980044 -91.58220431 41.09992631 -83.625 31.9375 C-74.82682818 22.69073719 -64.29565069 15.96924722 -51.24609375 14.984375 C-34.12149461 14.70478971 -23.06205706 20.5691875 -10.9375 32.1875 C-18.55879097 22.09443899 -29.44848037 16.1242999 -41.7890625 13.60546875 C-58.03774767 11.44838523 -71.6682499 14.25245875 -84.9375 24.1875 C-87.75081378 26.58333651 -87.75081378 26.58333651 -89.9375 29.1875 C-90.41574219 29.68636719 -90.89398438 30.18523437 -91.38671875 30.69921875 C-100.25646037 40.28390176 -103.49174616 52.46486617 -104.9375 65.1875 C-106.5875 65.1875 -108.2375 65.1875 -109.9375 65.1875 C-111.40750855 49.7687436 -104.91794436 35.36966158 -95.7578125 23.3203125 C-85.54436823 11.23161289 -71.41844697 2.53025571 -55.47167969 0.94189453 C-39.94474017 -0.00386402 -27.63193209 2.68469944 -13.9375 10.1875 C-28.63655631 0.09991234 -45.02174154 -3.8108846 -62.6640625 -1.27734375 C-79.71022653 2.12074777 -95.86977575 10.19870252 -106.07910156 24.82275391 C-114.41121572 37.72185801 -117.59199125 50.08593465 -118.9375 65.1875 C-121.2475 65.1875 -123.5575 65.1875 -125.9375 65.1875 C-127.08045759 46.36044864 -120.32437574 27.47772494 -107.9375 13.1875 C-107.30585937 12.40246094 -106.67421875 11.61742188 -106.0234375 10.80859375 C-79.64132009 -20.61010971 -32.1558994 -24.37640133 0 0 Z " fill="#A169D7" transform="translate(159.9375,87.8125)"/>
<path d="M0 0 C0.70382813 0.00193359 1.40765625 0.00386719 2.1328125 0.00585938 C6.88272193 0.04544195 11.44409339 0.3448489 16.125 1.125 C16.62 2.61 16.62 2.61 17.125 4.125 C18.115 4.62 18.115 4.62 19.125 5.125 C19.62 6.115 19.62 6.115 20.125 7.125 C18.475 7.785 16.825 8.445 15.125 9.125 C15.62 11.105 15.62 11.105 16.125 13.125 C15.00810791 13.14687378 15.00810791 13.14687378 13.86865234 13.16918945 C-5.7431197 13.33080542 -5.7431197 13.33080542 -24.875 17.125 C-25.74253906 17.39054687 -26.61007813 17.65609375 -27.50390625 17.9296875 C-46.19852003 24.54155403 -57.92852993 38.61183932 -66.1875 55.8671875 C-69.5241465 63.93892793 -70.10701404 72.50536814 -70.875 81.125 C-73.185 81.125 -75.495 81.125 -77.875 81.125 C-79.01795759 62.29794864 -72.26187574 43.41522494 -59.875 29.125 C-59.24335937 28.33996094 -58.61171875 27.55492188 -57.9609375 26.74609375 C-43.75761254 9.83122493 -22.0758588 -0.14633619 0 0 Z " fill="#F4CDD7" transform="translate(111.875,71.875)"/>
<path d="M0 0 C0 0.99 0 1.98 0 3 C-2.31 3.66 -4.62 4.32 -7 5 C-6.01 6.485 -6.01 6.485 -5 8 C-5 9.32 -5 10.64 -5 12 C-4.05125 11.95875 -3.1025 11.9175 -2.125 11.875 C1 12 1 12 3 14 C2.625 16.125 2.625 16.125 2 18 C-1 18 -1 18 -2.76953125 16.49609375 C-3.44371094 15.81675781 -4.11789063 15.13742188 -4.8125 14.4375 C-16.49714376 3.72340482 -30.4350995 0.2379224 -45.96875 0.69140625 C-57.82034613 1.37016924 -68.0463192 6.70783929 -76.8125 14.5 C-77.8953125 15.7375 -77.8953125 15.7375 -79 17 C-79.47824219 17.49886719 -79.95648438 17.99773437 -80.44921875 18.51171875 C-89.31896037 28.09640176 -92.55424616 40.27736617 -94 53 C-95.65 53 -97.3 53 -99 53 C-100.47000855 37.5812436 -93.98044436 23.18216158 -84.8203125 11.1328125 C-63.2712745 -14.37277018 -27.64258097 -18.42838732 0 0 Z " fill="#F9A2B2" transform="translate(149,100)"/>
<path d="M0 0 C0 0.99 0 1.98 0 3 C-0.804375 3.268125 -1.60875 3.53625 -2.4375 3.8125 C-3.283125 4.204375 -4.12875 4.59625 -5 5 C-5.33 5.99 -5.66 6.98 -6 8 C-7.58323688 8.027193 -9.16661062 8.04648306 -10.75 8.0625 C-12.07257813 8.07990234 -12.07257813 8.07990234 -13.421875 8.09765625 C-16 8 -16 8 -17.8671875 7.52734375 C-30.33788395 4.44392979 -39.40555515 7.82114196 -50 14 C-50.99 14.33 -51.98 14.66 -53 15 C-53.33 15.99 -53.66 16.98 -54 18 C-54.7425 18.66 -55.485 19.32 -56.25 20 C-62.90457506 26.44240021 -64.85468959 36.1623062 -66 45 C-67.32 45 -68.64 45 -70 45 C-70.8205133 32.69230044 -65.64470431 20.91242631 -57.6875 11.75 C-42.67501282 -4.02792649 -20.19996385 -10.95752756 0 0 Z " fill="#EDB1C3" transform="translate(134,108)"/>
<path d="M0 0 C0.495 1.485 0.495 1.485 1 3 C1.99 3.66 2.98 4.32 4 5 C2.02 5.33 0.04 5.66 -2 6 C-1.01 6.33 -0.02 6.66 1 7 C1 7.66 1 8.32 1 9 C-0.43279297 9.41958984 -0.43279297 9.41958984 -1.89453125 9.84765625 C-12.65440521 13.13174963 -22.40522616 17.32025846 -30 26 C-30.47824219 26.49886719 -30.95648438 26.99773437 -31.44921875 27.51171875 C-40.31896037 37.09640176 -43.55424616 49.27736617 -45 62 C-46.65 62 -48.3 62 -50 62 C-51.47000855 46.5812436 -44.98044436 32.18216158 -35.8203125 20.1328125 C-27.44954616 10.22511856 -13.73175117 -1.02988134 0 0 Z " fill="#FCB2BD" transform="translate(100,91)"/>
<path d="M0 0 C0.73742432 0.0002417 1.47484863 0.0004834 2.23461914 0.00073242 C9.2817688 0.2186855 15.07004492 2.41461065 20.8125 6.5625 C21.4725 7.5525 22.1325 8.5425 22.8125 9.5625 C20.5025 9.8925 18.1925 10.2225 15.8125 10.5625 C15.8125 11.2225 15.8125 11.8825 15.8125 12.5625 C13.8325 13.5525 13.8325 13.5525 11.8125 14.5625 C11.8125 15.2225 11.8125 15.8825 11.8125 16.5625 C13.1325 16.2325 14.4525 15.9025 15.8125 15.5625 C15.8125 17.2125 15.8125 18.8625 15.8125 20.5625 C15.1525 20.5625 14.4925 20.5625 13.8125 20.5625 C14.3075 22.0475 14.3075 22.0475 14.8125 23.5625 C14.1525 23.5625 13.4925 23.5625 12.8125 23.5625 C11.05452334 21.65500471 9.47231812 19.63644529 7.859375 17.60546875 C3.45787447 13.21236803 -0.96861042 12.11678855 -7.0625 12.0625 C-14.68588076 12.25509067 -18.69721302 13.96265244 -23.9296875 19.359375 C-27.85204938 24.05119543 -29.37995235 28.54766232 -30.1875 34.5625 C-31.1775 34.5625 -32.1675 34.5625 -33.1875 34.5625 C-33.9533375 25.75536876 -30.33610192 18.17347721 -24.88671875 11.37890625 C-18.06702748 4.08889144 -10.02855841 -0.03096296 0 0 Z " fill="#DC90BD" transform="translate(112.1875,118.4375)"/>
<path d="M0 0 C11.50718023 1.64388289 24.54655359 7.93196908 33 16 C33.495 16.99 33.495 16.99 34 18 C33.01 18.495 33.01 18.495 32 19 C30.95191959 20.97522846 29.9479589 22.97481509 29 25 C28.34 25 27.68 25 27 25 C26.505 26.485 26.505 26.485 26 28 C26.495 28.99 26.495 28.99 27 30 C23.8517563 28.54420622 21.21801121 26.75341525 18.4375 24.6875 C8.70860553 17.85174616 -1.59607039 14.75479541 -13 12 C-8.61991557 9.41535558 -5.88874887 10.18520852 -1 11 C-1.66 9.35 -2.32 7.7 -3 6 C-1.68 5.01 -0.36 4.02 1 3 C0.67 2.01 0.34 1.02 0 0 Z " fill="#C27EC9" transform="translate(129,74)"/>
<path d="M0 0 C0.99 1.485 0.99 1.485 2 3 C-1.7289993 1.58719152 -5.17224101 -0.12269213 -8.6875 -2 C-22.15649794 -8.67749596 -39.17310341 -9.41214492 -53.5625 -4.9375 C-60.36169258 -2.62651485 -66.2832813 0.6750968 -72 5 C-72.72703125 5.54527344 -73.4540625 6.09054688 -74.203125 6.65234375 C-79.56693848 11.00276499 -83.27919872 16.22113051 -87 22 C-89 19 -89 19 -89 16 C-90.32 15.34 -91.64 14.68 -93 14 C-83.1309191 3.13849756 -71.71928807 -6.6814696 -57 -10 C-56.18789062 -10.20109375 -55.37578125 -10.4021875 -54.5390625 -10.609375 C-34.88590345 -14.87428342 -16.90280645 -10.15002064 0 0 Z " fill="#350934" transform="translate(147,97)"/>
<path d="M0 0 C0.70382813 0.00193359 1.40765625 0.00386719 2.1328125 0.00585938 C6.88272193 0.04544195 11.44409339 0.3448489 16.125 1.125 C16.62 2.61 16.62 2.61 17.125 4.125 C17.785 4.455 18.445 4.785 19.125 5.125 C19.62 6.115 19.62 6.115 20.125 7.125 C18.475 7.785 16.825 8.445 15.125 9.125 C15.62 11.105 15.62 11.105 16.125 13.125 C7.70788 13.32891408 -0.56621011 13.22960914 -8.9375 12.25 C-9.62642334 12.17152832 -10.31534668 12.09305664 -11.02514648 12.01220703 C-15.48579284 11.44765055 -19.59606025 10.44930125 -23.875 9.125 C-20.85612756 5.64168565 -18.30590471 4.33342856 -13.875 3.125 C-13.875 2.465 -13.875 1.805 -13.875 1.125 C-9.22639564 0.21265709 -4.72242126 -0.03130393 0 0 Z " fill="#F9A6B3" transform="translate(111.875,71.875)"/>
<path d="M0 0 C4.45158982 1.44069634 7.2146493 3.70891684 10.625 6.875 C11.56601563 7.73867187 12.50703125 8.60234375 13.4765625 9.4921875 C17.54743863 13.53785696 17.54743863 13.53785696 19 16 C18.67 16.99 18.34 17.98 18 19 C16.88625 19.103125 15.7725 19.20625 14.625 19.3125 C13.42875 19.539375 12.2325 19.76625 11 20 C10.34 20.99 9.68 21.98 9 23 C9.33 23.99 9.66 24.98 10 26 C9.34 26.33 8.68 26.66 8 27 C7.67128906 26.43152344 7.34257812 25.86304688 7.00390625 25.27734375 C2.0469613 17.23070412 -4.33698616 11.77618552 -13 8 C-13 7.67 -13 7.34 -13 7 C-10.69 7 -8.38 7 -6 7 C-5.67 5.68 -5.34 4.36 -5 3 C-3.35 2.67 -1.7 2.34 0 2 C0 1.34 0 0.68 0 0 Z " fill="#C682C7" transform="translate(134,109)"/>
<path d="M0 0 C3.5482361 2.78994371 7.01687244 5.60272892 10 9 C10 9.99 10 10.98 10 12 C9.32195312 11.33613281 8.64390625 10.67226562 7.9453125 9.98828125 C-3.32653185 -0.7059201 -14.15651846 -5.63494314 -29.85546875 -5.3125 C-42.29518519 -4.07625489 -52.82226442 1.78834185 -62 10 C-62.66 8.68 -63.32 7.36 -64 6 C-64.99 6.66 -65.98 7.32 -67 8 C-67.66 7.34 -68.32 6.68 -69 6 C-48.81373738 -10.42818182 -22.71071424 -15.53012077 0 0 Z " fill="#3D0E38" transform="translate(139,109)"/>
<path d="M0 0 C6.04490801 1.72111964 12.23049369 3.73733496 17 8 C17 8.99 17 9.98 17 11 C14.69 11.66 12.38 12.32 10 13 C10.99 14.485 10.99 14.485 12 16 C12 17.32 12 18.64 12 20 C12.94875 19.95875 13.8975 19.9175 14.875 19.875 C18 20 18 20 20 22 C19.625 24.125 19.625 24.125 19 26 C16 26 16 26 14.23046875 24.49609375 C13.55628906 23.81675781 12.88210937 23.13742188 12.1875 22.4375 C4.0706084 14.99481275 -6.02746574 10.23883451 -17 9 C-17 8.67 -17 8.34 -17 8 C-15.78763672 8.01353516 -15.78763672 8.01353516 -14.55078125 8.02734375 C-8.37427862 8.06629506 -8.37427862 8.06629506 -3.08984375 5.375 C-1.56245961 3.25861007 -1.56245961 3.25861007 0 0 Z " fill="#CF87C2" transform="translate(132,92)"/>
<path d="M0 0 C0.9075 0.0825 1.815 0.165 2.75 0.25 C2.21830146 4.6543685 0.64409574 7.09263422 -2.0625 10.5625 C-9.57177424 20.61956372 -12.83155269 30.7676637 -14.25 43.25 C-15.9 43.25 -17.55 43.25 -19.25 43.25 C-20.58389449 29.25892885 -15.29053508 15.54632222 -7.25 4.25 C-3.80758251 0.29289096 -3.80758251 0.29289096 0 0 Z " fill="#EEBBCA" transform="translate(69.25,109.75)"/>
<path d="M0 0 C7.85437967 0.1230204 15.66710807 1.53817183 22.625 5.3125 C22.625 6.3025 22.625 7.2925 22.625 8.3125 C21.820625 8.580625 21.01625 8.84875 20.1875 9.125 C19.341875 9.516875 18.49625 9.90875 17.625 10.3125 C17.295 11.3025 16.965 12.2925 16.625 13.3125 C15.04176312 13.339693 13.45838938 13.35898306 11.875 13.375 C10.55242187 13.39240234 10.55242187 13.39240234 9.203125 13.41015625 C6.80643612 13.31937258 4.93440097 12.89846741 2.625 12.3125 C0.37792759 12.0926777 -1.87271238 11.90766013 -4.125 11.75 C-5.29546875 11.66621094 -6.4659375 11.58242187 -7.671875 11.49609375 C-9.00992188 11.40521484 -9.00992188 11.40521484 -10.375 11.3125 C-9.715 10.9825 -9.055 10.6525 -8.375 10.3125 C-7.71944881 7.78516765 -7.71944881 7.78516765 -7.375 5.3125 C-4.735 5.3125 -2.095 5.3125 0.625 5.3125 C0.625 4.3225 0.625 3.3325 0.625 2.3125 C-2.015 2.3125 -4.655 2.3125 -7.375 2.3125 C-4.77109551 -0.29140449 -3.62629933 0.01427677 0 0 Z " fill="#E997B8" transform="translate(111.375,102.6875)"/>
<path d="M0 0 C1.07765625 0.11085938 2.1553125 0.22171875 3.265625 0.3359375 C4.08546875 0.43132812 4.9053125 0.52671875 5.75 0.625 C5.15802544 3.81102037 4.91770693 4.48309414 2.3125 6.6875 C-0.42924476 8.38539977 -3.15160921 9.26044148 -6.25 10.125 C-14.13213056 12.35512376 -19.2416533 16.4921346 -23.25 23.625 C-24.21821348 26.59879856 -24.83419141 29.52794288 -25.25 32.625 C-26.24 32.625 -27.23 32.625 -28.25 32.625 C-29.01622648 23.81339549 -25.39224831 16.2551286 -19.9609375 9.4453125 C-17.06747609 6.36688095 -13.8093849 3.88744303 -10.25 1.625 C-9.63898438 1.233125 -9.02796875 0.84125 -8.3984375 0.4375 C-5.43979615 -0.68140436 -3.1264493 -0.33983145 0 0 Z " fill="#F6A2B4" transform="translate(107.25,120.375)"/>
<path d="M0 0 C10.76086957 2.0326087 10.76086957 2.0326087 15 5 C15.75 8.125 15.75 8.125 16 11 C16.66 11.33 17.32 11.66 18 12 C17.01 12.495 17.01 12.495 16 13 C15.67 13.99 15.34 14.98 15 16 C14.01 16 13.02 16 12 16 C11.67 16.66 11.34 17.32 11 18 C6.5098416 17.33402849 2.23805207 16.31110561 -2.125 15.0625 C-3.32382813 14.72347656 -4.52265625 14.38445312 -5.7578125 14.03515625 C-8.36352463 13.20321202 -10.6187914 12.3209192 -13 11 C-8.91556885 9.46833832 -5.20544343 10.36918348 -1 11 C-1.66 9.35 -2.32 7.7 -3 6 C-1.68 5.01 -0.36 4.02 1 3 C0.67 2.01 0.34 1.02 0 0 Z " fill="#DA8FBE" transform="translate(129,74)"/>
<path d="M0 0 C9.24587669 10.75741068 12.15133187 27.09346242 12 41 C7.5159659 41.04951788 3.03207761 41.08577526 -1.45214844 41.10986328 C-2.97691623 41.11990744 -4.50166484 41.13354531 -6.02636719 41.15087891 C-8.22075138 41.17519738 -10.41488042 41.18649889 -12.609375 41.1953125 C-14.5888916 41.21102295 -14.5888916 41.21102295 -16.60839844 41.22705078 C-19.73220559 41.0179275 -21.40580238 40.66605136 -24 39 C-21.23194767 38.07731589 -18.76201532 37.95800705 -15.875 38 C-12.2049729 38.28882545 -12.2049729 38.28882545 -10 37 C-7.71003214 36.90243245 -5.41704047 36.87023484 -3.125 36.875 C-1.89007813 36.87242187 -0.65515625 36.86984375 0.6171875 36.8671875 C3.34442222 36.97426138 5.41059789 37.28814417 8 38 C7.52362901 35.22865934 7.04402451 32.45794567 6.5625 29.6875 C6.42779297 28.90181641 6.29308594 28.11613281 6.15429688 27.30664062 C5.95610352 26.1706543 5.95610352 26.1706543 5.75390625 25.01171875 C5.63345947 24.31522217 5.5130127 23.61872559 5.38891602 22.90112305 C4.99664201 20.7904669 4.99664201 20.7904669 4 18 C3.22729672 15.1359585 2.47183625 12.26769612 1.71875 9.3984375 C1.2274167 7.06929572 1.2274167 7.06929572 0 6 C-0.04080783 4.00041636 -0.04254356 1.99954746 0 0 Z " fill="#7B4FCD" transform="translate(180,112)"/>
<path d="M0 0 C-1.1875 1.5 -1.1875 1.5 -3 3 C-5.6875 3.1875 -5.6875 3.1875 -8 3 C-8 4.32 -8 5.64 -8 7 C-1.34574301 8.14231412 5.29221378 9.22602467 12 10 C12 10.33 12 10.66 12 11 C10.96101563 11.12117188 9.92203125 11.24234375 8.8515625 11.3671875 C7.44259422 11.53550584 6.0337478 11.70484622 4.625 11.875 C3.89418213 11.96305908 3.16336426 12.05111816 2.41040039 12.1418457 C-1.63565613 12.64710019 -5.58287382 13.28051543 -9.5625 14.1875 C-13.72773424 15.09359649 -16.83931227 14.86680994 -21 14 C-21.66 14 -22.32 14 -23 14 C-25.46278801 12.768606 -26.42497687 11.21935077 -28 9 C-9.61284978 -0.61358616 -9.61284978 -0.61358616 0 0 Z " fill="#FCBDC4" transform="translate(100,74)"/>
<path d="M0 0 C1.85546875 0.78125 1.85546875 0.78125 3.85546875 2.78125 C4.84546875 2.78125 5.83546875 2.78125 6.85546875 2.78125 C8.85856204 3.09546071 10.85918211 3.4263546 12.85546875 3.78125 C10.50521996 6.13149879 8.30504305 7.06465406 5.29296875 8.46875 C0.1948167 10.95042257 -4.01451691 13.76995274 -8.3046875 17.4609375 C-10.14453125 18.78125 -10.14453125 18.78125 -13.14453125 18.78125 C-11.9927977 16.31324953 -11.0966956 14.73341435 -9.14453125 12.78125 C-10.46453125 12.12125 -11.78453125 11.46125 -13.14453125 10.78125 C-13.80453125 12.10125 -14.46453125 13.42125 -15.14453125 14.78125 C-15.80453125 14.78125 -16.46453125 14.78125 -17.14453125 14.78125 C-17.14453125 15.44125 -17.14453125 16.10125 -17.14453125 16.78125 C-17.80453125 16.78125 -18.46453125 16.78125 -19.14453125 16.78125 C-17.96943421 10.05381943 -11.73817453 6.03478985 -6.45703125 2.28125 C-2.77422047 -0.28298059 -2.77422047 -0.28298059 0 0 Z " fill="#F2C3D1" transform="translate(73.14453125,84.21875)"/>
<path d="M0 0 C0 0.99 0 1.98 0 3 C-2.64 3 -5.28 3 -8 3 C-7.98839844 3.74636719 -7.97679688 4.49273437 -7.96484375 5.26171875 C-9 8 -9 8 -10.67626953 9.06884766 C-12.94538446 10.07682547 -15.22924835 10.96353374 -17.5625 11.8125 C-18.36880859 12.12380859 -19.17511719 12.43511719 -20.00585938 12.75585938 C-21.9971398 13.52173646 -23.9977676 14.26322944 -26 15 C-26.66 14.34 -27.32 13.68 -28 13 C-28.66 12.67 -29.32 12.34 -30 12 C-29.66367155 9.16872595 -29.26507285 8.21133489 -26.99609375 6.40234375 C-24.35166934 4.88836031 -21.70155426 3.40984902 -19 2 C-18.32195312 1.64164062 -17.64390625 1.28328125 -16.9453125 0.9140625 C-11.2772546 -1.64949896 -6.02973169 -0.91997745 0 0 Z " fill="#F8ADBF" transform="translate(112,105)"/>
<path d="M0 0 C1.25925293 -0.00580078 1.25925293 -0.00580078 2.54394531 -0.01171875 C3.42405273 -0.00269531 4.30416016 0.00632812 5.2109375 0.015625 C6.10651367 0.01949219 7.00208984 0.02335937 7.92480469 0.02734375 C14.03906818 0.10741413 19.65712457 0.68460822 25.5859375 2.265625 C24.33766695 5.7223742 23.13119809 8.58432036 20.5859375 11.265625 C18.1340332 11.71972656 18.1340332 11.71972656 15.26171875 11.65625 C14.23369141 11.64335938 13.20566406 11.63046875 12.14648438 11.6171875 C11.07462891 11.58367187 10.00277344 11.55015625 8.8984375 11.515625 C7.81498047 11.49757813 6.73152344 11.47953125 5.61523438 11.4609375 C2.93791604 11.41376008 0.26236841 11.34794749 -2.4140625 11.265625 C-2.4140625 10.935625 -2.4140625 10.605625 -2.4140625 10.265625 C6.0009375 9.770625 6.0009375 9.770625 14.5859375 9.265625 C14.5859375 8.605625 14.5859375 7.945625 14.5859375 7.265625 C13.9259375 6.935625 13.2659375 6.605625 12.5859375 6.265625 C12.9159375 5.275625 13.2459375 4.285625 13.5859375 3.265625 C6.3259375 2.935625 -0.9340625 2.605625 -8.4140625 2.265625 C-4.80091846 0.45905298 -3.74168715 0.01120505 0 0 Z " fill="#E396B9" transform="translate(106.4140625,88.734375)"/>
<path d="M0 0 C3.5482361 2.78994371 7.01687244 5.60272892 10 9 C10 9.99 10 10.98 10 12 C9.32195312 11.33613281 8.64390625 10.67226562 7.9453125 9.98828125 C-3.62921475 -0.99309155 -14.17577082 -5.37035176 -30.16796875 -5.14453125 C-32.63681186 -5.01853512 -34.99804505 -4.7563084 -37.4375 -4.375 C-41.07738592 -3.99185411 -42.81137809 -4.30604461 -46 -6 C-45.67 -6.66 -45.34 -7.32 -45 -8 C-30.27648516 -12.28520208 -12.38116269 -8.46653037 0 0 Z " fill="#350530" transform="translate(139,109)"/>
<path d="M0 0 C16.8929385 -0.18451025 16.8929385 -0.18451025 24 1 C24.33 1.99 24.66 2.98 25 4 C25.66 4.33 26.32 4.66 27 5 C27.33 5.66 27.66 6.32 28 7 C26.35 7.66 24.7 8.32 23 9 C23.33 10.32 23.66 11.64 24 13 C22.35 13 20.7 13 19 13 C18.67 12.34 18.34 11.68 18 11 C17.01 10.67 16.02 10.34 15 10 C15.33 8.02 15.66 6.04 16 4 C9.76817361 2.96136227 4.25307239 3.16711126 -2 4 C-1.34 2.68 -0.68 1.36 0 0 Z " fill="#EC96B2" transform="translate(104,72)"/>
<path d="M0 0 C13.17892078 0.03321529 23.44187567 3.65925748 33.25610352 12.75537109 C33.73047852 13.29162109 34.20485352 13.82787109 34.69360352 14.38037109 C34.36360352 15.04037109 34.03360352 15.70037109 33.69360352 16.38037109 C33.29270508 15.99365234 32.89180664 15.60693359 32.47875977 15.20849609 C23.65190664 7.12221795 15.52429273 5.71694831 3.69360352 5.38037109 C3.69360352 4.72037109 3.69360352 4.06037109 3.69360352 3.38037109 C0.06360352 3.05037109 -3.56639648 2.72037109 -7.30639648 2.38037109 C-4.85023142 -0.07579397 -3.36395389 0.07481848 0 0 Z " fill="#3D0635" transform="translate(103.306396484375,113.61962890625)"/>
<path d="M0 0 C0.33 0.66 0.66 1.32 1 2 C2.81656815 2.93391003 2.81656815 2.93391003 5 3 C5.639375 2.505 6.27875 2.01 6.9375 1.5 C9 0 9 0 11.75 0.3125 C12.86375 0.6528125 12.86375 0.6528125 14 1 C11.49120644 3.77153883 8.66439214 5.59326134 5.5 7.5625 C4.5409375 8.16191406 3.581875 8.76132813 2.59375 9.37890625 C1.7378125 9.91386719 0.881875 10.44882813 0 11 C-0.99 11.66 -1.98 12.32 -3 13 C-3.66 12.34 -4.32 11.68 -5 11 C-4.34 11 -3.68 11 -3 11 C-3 10.34 -3 9.68 -3 9 C-4.98 9 -6.96 9 -9 9 C-8.06725891 7.87105124 -7.12859878 6.74699124 -6.1875 5.625 C-5.66542969 4.99851562 -5.14335938 4.37203125 -4.60546875 3.7265625 C-3 2 -3 2 0 0 Z " fill="#F1B2C8" transform="translate(75,101)"/>
<path d="M0 0 C16.99428293 -0.86779317 31.44384412 3.25912711 46 12 C46.66 12.99 47.32 13.98 48 15 C44.2710007 13.58719152 40.82775899 11.87730787 37.3125 10 C26.90119555 4.80067299 16.4229666 4.53855178 5 4 C5 3.34 5 2.68 5 2 C3.35 1.67 1.7 1.34 0 1 C0 0.67 0 0.34 0 0 Z " fill="#501342" transform="translate(101,85)"/>
<path d="M0 0 C2.81296623 1.40648311 4.5330209 2.98807877 6.625 5.3125 C4.315 5.6425 2.005 5.9725 -0.375 6.3125 C-0.375 6.9725 -0.375 7.6325 -0.375 8.3125 C-2.355 9.3025 -2.355 9.3025 -4.375 10.3125 C-4.375 10.9725 -4.375 11.6325 -4.375 12.3125 C-3.055 11.9825 -1.735 11.6525 -0.375 11.3125 C-0.375 12.9625 -0.375 14.6125 -0.375 16.3125 C-1.035 16.3125 -1.695 16.3125 -2.375 16.3125 C-2.045 17.3025 -1.715 18.2925 -1.375 19.3125 C-2.035 19.3125 -2.695 19.3125 -3.375 19.3125 C-4.9609375 17.66796875 -4.9609375 17.66796875 -6.75 15.5 C-9.0921919 12.66770187 -11.35686585 10.41987561 -14.375 8.3125 C-12.375 7.3125 -12.375 7.3125 -9.375 7.3125 C-6.79959787 7.14742354 -6.79959787 7.14742354 -4.375 6.3125 C-3.01479849 4.34491727 -3.01479849 4.34491727 -2.375 2.3125 C-3.035 1.6525 -3.695 0.9925 -4.375 0.3125 C-2.375 -0.6875 -2.375 -0.6875 0 0 Z " fill="#CA85BF" transform="translate(128.375,122.6875)"/>
<path d="M0 0 C0 3 0 3 -1 5 C0.32 5.66 1.64 6.32 3 7 C2.54109375 7.3403125 2.0821875 7.680625 1.609375 8.03125 C-4.20689274 12.62561275 -7.19353205 17.23648288 -8.75 24.5 C-8.8325 25.325 -8.915 26.15 -9 27 C-9.99 27 -10.98 27 -12 27 C-12.79272109 17.8837075 -8.91828176 10.61171373 -3.3671875 3.59375 C-2 2 -2 2 0 0 Z " fill="#E29FB8" transform="translate(91,126)"/>
<path d="M0 0 C0 0.99 0 1.98 0 3 C-2.64 3 -5.28 3 -8 3 C-8.33 4.65 -8.66 6.3 -9 8 C-12.3 8.33 -15.6 8.66 -19 9 C-19.33 8.01 -19.66 7.02 -20 6 C-18.35 4.68 -16.7 3.36 -15 2 C-15.66 1.67 -16.32 1.34 -17 1 C-11.2364368 -1.64812363 -6.09067424 -0.8019749 0 0 Z " fill="#F29EB0" transform="translate(112,105)"/>
<path d="M0 0 C0.66902344 -0.01224609 1.33804688 -0.02449219 2.02734375 -0.03710938 C6.05686909 -0.0489842 9.12575151 0.41049444 12.75 2.1875 C12.75 2.5175 12.75 2.8475 12.75 3.1875 C5.56592889 3.87638353 -1.59708028 4.30855967 -8.8125 4.375 C-9.49054688 4.38789063 -10.16859375 4.40078125 -10.8671875 4.4140625 C-14.50694557 4.4213566 -17.15612155 4.17923345 -20.25 2.1875 C-17.46145291 1.2579843 -14.97116386 1.14572386 -12.0625 1.1875 C-10.804375 1.1875 -9.54625 1.1875 -8.25 1.1875 C-6.29350459 -0.76899541 -2.66425221 0.00250871 0 0 Z " fill="#8D5CCD" transform="translate(176.25,148.8125)"/>
<path d="M0 0 C1.5625 1.1875 1.5625 1.1875 3 3 C3.15017816 8.25623561 -0.86192475 12.13258616 -4 16 C-6 13 -6 13 -6 10 C-7.32 9.34 -8.64 8.68 -10 8 C-8.68 7.01 -7.36 6.02 -6 5 C-5.67 5.66 -5.34 6.32 -5 7 C-2.22999175 3.67913229 -2.22999175 3.67913229 0 0 Z " fill="#390E40" transform="translate(64,103)"/>
<path d="M0 0 C1.40668945 0.20786133 1.40668945 0.20786133 2.84179688 0.41992188 C4.30649414 0.64711914 4.30649414 0.64711914 5.80078125 0.87890625 C7.28288086 1.10030273 7.28288086 1.10030273 8.79492188 1.32617188 C11.23539138 1.69165282 13.6746896 2.06363196 16.11328125 2.44140625 C16.11328125 2.77140625 16.11328125 3.10140625 16.11328125 3.44140625 C15.07429688 3.56257813 14.0353125 3.68375 12.96484375 3.80859375 C5.27481405 4.72556706 -2.32343215 5.73239437 -9.88671875 7.44140625 C-9.88671875 4.44140625 -9.88671875 4.44140625 -7.88671875 2.44140625 C-7.88671875 1.78140625 -7.88671875 1.12140625 -7.88671875 0.44140625 C-4.67548506 -0.62900498 -3.28272467 -0.49738253 0 0 Z " fill="#F2ADC3" transform="translate(95.88671875,81.55859375)"/>
<path d="M0 0 C3.78717347 1.48781815 5.77407001 3.61988409 8 7 C7.67 7.99 7.34 8.98 7 10 C2.545 10.495 2.545 10.495 -2 11 C-1.67 9.35 -1.34 7.7 -1 6 C-1.66 6 -2.32 6 -3 6 C-2 4 -1 2 0 0 Z " fill="#BB7BD1" transform="translate(145,118)"/>
<path d="M0 0 C3.34373475 0.55728913 6.03312999 1.35173889 9 3 C9 3.99 9 4.98 9 6 C7.35 6.33 5.7 6.66 4 7 C3.731875 6.360625 3.46375 5.72125 3.1875 5.0625 C2.11332248 2.66868314 2.11332248 2.66868314 -1 2 C-0.67 1.34 -0.34 0.68 0 0 Z M4 8 C3.67 8.99 3.34 9.98 3 11 C-0.3 11 -3.6 11 -7 11 C-6 9 -6 9 -2.625 7.8125 C1 7 1 7 4 8 Z " fill="#CF87BA" transform="translate(125,105)"/>
<path d="M0 0 C2.8203125 0.0234375 2.8203125 0.0234375 6.125 0.375 C7.22070312 0.48585938 8.31640625 0.59671875 9.4453125 0.7109375 C10.28835937 0.80632812 11.13140625 0.90171875 12 1 C11.125 4.875 11.125 4.875 10 6 C2.74349442 6.59479554 2.74349442 6.59479554 -0.5 4 C-0.995 3.34 -1.49 2.68 -2 2 C-1.34 1.34 -0.68 0.68 0 0 Z " fill="#EE98B3" transform="translate(101,120)"/>
<path d="M0 0 C1.65 1.65 3.3 3.3 5 5 C4.05125 4.938125 3.1025 4.87625 2.125 4.8125 C0.578125 4.9053125 0.578125 4.9053125 -1 5 C-3.36980013 7.95377498 -3.36980013 7.95377498 -3 12 C-2.34 12.66 -1.68 13.32 -1 14 C-1.99 14 -2.98 14 -4 14 C-4 14.66 -4 15.32 -4 16 C-4.99 15.67 -5.98 15.34 -7 15 C-6.67 14.34 -6.34 13.68 -6 13 C-6.99 12.34 -7.98 11.68 -9 11 C-8.67 10.34 -8.34 9.68 -8 9 C-7.67 8.01 -7.34 7.02 -7 6 C-6.01 5.67 -5.02 5.34 -4 5 C-3.30062468 3.68352881 -2.63270867 2.34977849 -2 1 C-1.34 0.67 -0.68 0.34 0 0 Z " fill="#B274CE" transform="translate(163,91)"/>
<path d="M0 0 C0 1.66666667 0 3.33333333 0 5 C0.99 5.33 1.98 5.66 3 6 C-2.96345767 7.0006709 -7.28728907 7.0662997 -13 5 C-9.35915152 0.79902099 -5.5729332 -1.8576444 0 0 Z " fill="#F9B5B8" transform="translate(101,76)"/>
<path d="M0 0 C10.822065 3.01598533 19.52768011 8.60957938 27 17 C26.67 17.66 26.34 18.32 26 19 C25.32195312 18.33613281 24.64390625 17.67226562 23.9453125 16.98828125 C16.788054 10.19780746 10.01389403 4.71616205 0 3 C0 2.01 0 1.02 0 0 Z " fill="#5D205D" transform="translate(123,102)"/>
<path d="M0 0 C1.90608098 3.21182149 2.22266247 5.53882603 2.125 9.25 C2.10695312 10.14203125 2.08890625 11.0340625 2.0703125 11.953125 C2.04710937 12.62859375 2.02390625 13.3040625 2 14 C2.66 14.33 3.32 14.66 4 15 C4.33 13.02 4.66 11.04 5 9 C5.33 9 5.66 9 6 9 C6 11.97 6 14.94 6 18 C3.69 18 1.38 18 -1 18 C-1.02717692 15.93757383 -1.0464758 13.87504297 -1.0625 11.8125 C-1.07410156 10.66394531 -1.08570313 9.51539063 -1.09765625 8.33203125 C-1.01192832 5.40699414 -0.67849023 2.83683709 0 0 Z " fill="#DFB8CC" transform="translate(35,135)"/>
<path d="M0 0 C-2 2 -2 2 -5 2.375 C-5.99 2.58125 -6.98 2.7875 -8 3 C-8.309375 3.639375 -8.61875 4.27875 -8.9375 4.9375 C-10 7 -10 7 -13.375 8.3125 C-16.72136456 8.94715535 -17.91458935 8.94465216 -21 8 C-19.129287 6.86788566 -17.25321809 5.74461905 -15.375 4.625 C-14.33085938 3.99851562 -13.28671875 3.37203125 -12.2109375 2.7265625 C-4.40782123 -1.46927374 -4.40782123 -1.46927374 0 0 Z " fill="#E7ACC2" transform="translate(97,92)"/>
<path d="M0 0 C0.33 0 0.66 0 1 0 C1.33 4.62 1.66 9.24 2 14 C-3.28 14 -8.56 14 -14 14 C-14 13.67 -14 13.34 -14 13 C-8.06 12.505 -8.06 12.505 -2 12 C-2.226875 10.948125 -2.45375 9.89625 -2.6875 8.8125 C-3.03130754 4.61804803 -2.55539474 3.24338563 0 0 Z " fill="#6D42AF" transform="translate(190,139)"/>
<path d="M0 0 C1.47668858 0.0133035 2.95331108 0.03716415 4.4296875 0.0703125 C5.18378906 0.07933594 5.93789062 0.08835937 6.71484375 0.09765625 C8.57826004 0.1212438 10.44151343 0.15711531 12.3046875 0.1953125 C10.9846875 1.1853125 9.6646875 2.1753125 8.3046875 3.1953125 C9.9546875 3.5253125 11.6046875 3.8553125 13.3046875 4.1953125 C13.3046875 4.5253125 13.3046875 4.8553125 13.3046875 5.1953125 C10.6646875 5.1953125 8.0246875 5.1953125 5.3046875 5.1953125 C5.3046875 4.5353125 5.3046875 3.8753125 5.3046875 3.1953125 C1.6746875 2.8653125 -1.9553125 2.5353125 -5.6953125 2.1953125 C-3.6953125 0.1953125 -3.6953125 0.1953125 0 0 Z " fill="#4C1440" transform="translate(101.6953125,113.8046875)"/>
<path d="M0 0 C-1.51947499 3.36748512 -2.52100842 4.60840337 -6 6 C-6.33 4.68 -6.66 3.36 -7 2 C-7.99 3.485 -7.99 3.485 -9 5 C-9.66 5 -10.32 5 -11 5 C-11.66 6.32 -12.32 7.64 -13 9 C-13.8125 7.3125 -13.8125 7.3125 -14 5 C-10.12632053 -0.68139655 -6.30434841 -0.61807337 0 0 Z " fill="#2E0533" transform="translate(72,102)"/>
<path d="M0 0 C1.98 0.99 1.98 0.99 4 2 C4 3.32 4 4.64 4 6 C4.94875 5.95875 5.8975 5.9175 6.875 5.875 C10 6 10 6 12 8 C11.625 10.125 11.625 10.125 11 12 C8 12 8 12 6.39453125 10.79296875 C5.87246094 10.26316406 5.35039062 9.73335937 4.8125 9.1875 C4.28269531 8.66542969 3.75289062 8.14335938 3.20703125 7.60546875 C2 6 2 6 2 3 C1.34 2.67 0.68 2.34 0 2 C0 1.34 0 0.68 0 0 Z " fill="#BB7BD1" transform="translate(140,106)"/>
<path d="M0 0 C1.56814453 0.02126953 1.56814453 0.02126953 3.16796875 0.04296875 C4.20566406 0.04941406 5.24335937 0.05585937 6.3125 0.0625 C9.09653528 0.21617589 11.64345512 0.60384823 14.35546875 1.23046875 C14.02546875 2.88046875 13.69546875 4.53046875 13.35546875 6.23046875 C14.34546875 6.56046875 15.33546875 6.89046875 16.35546875 7.23046875 C13.88046875 6.73546875 13.88046875 6.73546875 11.35546875 6.23046875 C11.02546875 5.24046875 10.69546875 4.25046875 10.35546875 3.23046875 C5.40546875 2.90046875 0.45546875 2.57046875 -4.64453125 2.23046875 C-2.64453125 0.23046875 -2.64453125 0.23046875 0 0 Z " fill="#D18BB0" transform="translate(108.64453125,102.76953125)"/>
<path d="M0 0 C2.62527189 -0.05382106 5.24944713 -0.09358313 7.875 -0.125 C8.62136719 -0.14175781 9.36773437 -0.15851563 10.13671875 -0.17578125 C12.09194461 -0.1933959 14.04742021 -0.10320189 16 0 C16.66 0.66 17.32 1.32 18 2 C11.4 2.66 4.8 3.32 -2 4 C-1.34 2.68 -0.68 1.36 0 0 Z " fill="#DF99B1" transform="translate(104,72)"/>
<path d="M0 0 C0.99 0.33 1.98 0.66 3 1 C3 1.66 3 2.32 3 3 C4.32 3.33 5.64 3.66 7 4 C5.02 5.65 3.04 7.3 1 9 C0.34 7.68 -0.32 6.36 -1 5 C-1.99 5.66 -2.98 6.32 -4 7 C-4.66 6.34 -5.32 5.68 -6 5 C-1.60546875 0.99609375 -1.60546875 0.99609375 0 0 Z " fill="#3E143F" transform="translate(76,110)"/>
<path d="M0 0 C3 1 3 1 4 2 C4 3.32 4 4.64 4 6 C1.36 6.99 -1.28 7.98 -4 9 C-4.33 8.34 -4.66 7.68 -5 7 C-3.56742037 4.27127689 -2.18277634 2.18277634 0 0 Z " fill="#FAB5C7" transform="translate(81,115)"/>
<path d="M0 0 C0.74056641 0.00451172 1.48113281 0.00902344 2.24414062 0.01367188 C4.05862899 0.02537825 5.87307534 0.04331102 7.6875 0.0625 C7.3575 0.7225 7.0275 1.3825 6.6875 2.0625 C3.91714291 2.28412857 1.14711005 2.49029249 -1.625 2.6875 C-2.41068359 2.75195312 -3.19636719 2.81640625 -4.00585938 2.8828125 C-4.76318359 2.934375 -5.52050781 2.9859375 -6.30078125 3.0390625 C-6.99727783 3.09143066 -7.69377441 3.14379883 -8.41137695 3.19775391 C-10.3125 3.0625 -10.3125 3.0625 -13.3125 1.0625 C-8.8746439 -0.04915232 -4.54293614 -0.05277763 0 0 Z " fill="#390C38" transform="translate(107.3125,99.9375)"/>
<path d="M0 0 C5.00659535 5.84102791 6.2394133 10.52089745 7 18 C3.11618664 14.76348887 2.18798848 11.84333764 1 7 C0.67 6.67 0.34 6.34 0 6 C-0.04080783 4.00041636 -0.04254356 1.99954746 0 0 Z " fill="#8757CD" transform="translate(180,112)"/>
<path d="M0 0 C0.33 0.99 0.66 1.98 1 3 C1.804375 3.12375 2.60875 3.2475 3.4375 3.375 C4.7059375 3.684375 4.7059375 3.684375 6 4 C6.33 4.66 6.66 5.32 7 6 C5.02 7.32 3.04 8.64 1 10 C0.34 9.34 -0.32 8.68 -1 8 C-0.34 8 0.32 8 1 8 C1 7.34 1 6.68 1 6 C-0.98 6 -2.96 6 -5 6 C-3.35 4.02 -1.7 2.04 0 0 Z " fill="#E5AFC3" transform="translate(71,104)"/>
<path d="M0 0 C1.65 1.65 3.3 3.3 5 5 C3.68 7.64 2.36 10.28 1 13 C0.34 13 -0.32 13 -1 13 C-1.33 10.69 -1.66 8.38 -2 6 C-1.34 6 -0.68 6 0 6 C0 4.02 0 2.04 0 0 Z " fill="#3F0B3F" transform="translate(67,122)"/>
<path d="M0 0 C0.66 0.66 1.32 1.32 2 2 C1.67 2.66 1.34 3.32 1 4 C0.74202425 7.95562822 0.90559811 10.59659693 3 14 C0.03 13.505 0.03 13.505 -3 13 C-3.31563182 7.73946963 -2.66590937 4.55426184 0 0 Z " fill="#430E39" transform="translate(85,141)"/>
<path d="M0 0 C3.625 0.25 3.625 0.25 5.5625 1.75 C5.913125 2.245 6.26375 2.74 6.625 3.25 C4.975 4.57 3.325 5.89 1.625 7.25 C1.625 6.59 1.625 5.93 1.625 5.25 C0.635 5.25 -0.355 5.25 -1.375 5.25 C-3.0625 3.25 -3.0625 3.25 -4.375 1.25 C-3.375 0.25 -3.375 0.25 0 0 Z " fill="#F0C9D2" transform="translate(54.375,101.75)"/>
<path d="M0 0 C-1.39332574 3.36720387 -2.9789286 4.9859524 -6 7 C-7.32 6.34 -8.64 5.68 -10 5 C-5.16129032 0 -5.16129032 0 0 0 Z " fill="#F5C0CD" transform="translate(86,78)"/>
<path d="M0 0 C-0.33 0.99 -0.66 1.98 -1 3 C-4.3 3.33 -7.6 3.66 -11 4 C-11.33 3.01 -11.66 2.02 -12 1 C-7.53763531 -0.80619523 -4.68965706 -1.11658501 0 0 Z " fill="#FCA7B3" transform="translate(104,110)"/>
<path d="M0 0 C4.62 0 9.24 0 14 0 C14.33 1.98 14.66 3.96 15 6 C13.35 5.67 11.7 5.34 10 5 C10 4.01 10 3.02 10 2 C8.3603125 2.061875 8.3603125 2.061875 6.6875 2.125 C3 2 3 2 0 0 Z " fill="#430F40" transform="translate(98,130)"/>
<path d="M0 0 C4.16138263 -0.08159574 7.9472484 0.01751476 12 1 C12 1.66 12 2.32 12 3 C8.26513121 3.5745952 4.78706732 4 1 4 C0.67 2.68 0.34 1.36 0 0 Z " fill="#290336" transform="translate(95,116)"/>
<path d="M0 0 C-2.50328511 3.08031355 -4.71098698 3.64066484 -8.5625 4.3125 C-10.01849609 4.58513672 -10.01849609 4.58513672 -11.50390625 4.86328125 C-12.73947266 4.93095703 -12.73947266 4.93095703 -14 5 C-14.66 4.34 -15.32 3.68 -16 3 C-10.47239641 0.89424625 -5.93002267 -0.37851209 0 0 Z " fill="#E8AEC5" transform="translate(100,74)"/>
<path d="M0 0 C0.66 0.99 1.32 1.98 2 3 C2.66 3.33 3.32 3.66 4 4 C0.75790636 6.16139576 -0.25677768 6.28794018 -4 6 C-4.66 5.67 -5.32 5.34 -6 5 C-3.74193548 0 -3.74193548 0 0 0 Z " fill="#330635" transform="translate(83,107)"/>
<path d="M0 0 C0.66 0 1.32 0 2 0 C2 0.66 2 1.32 2 2 C2.66 2 3.32 2 4 2 C4.66 3.32 5.32 4.64 6 6 C3.69 6 1.38 6 -1 6 C-1.625 4.125 -1.625 4.125 -2 2 C-1.34 1.34 -0.68 0.68 0 0 Z " fill="#B576D1" transform="translate(154,106)"/>
<path d="M0 0 C0.99 0 1.98 0 3 0 C3 2.31 3 4.62 3 7 C1.35 7 -0.3 7 -2 7 C-2 5.35 -2 3.7 -2 2 C-1.34 2 -0.68 2 0 2 C0 1.34 0 0.68 0 0 Z " fill="#F1C4DB" transform="translate(52,146)"/>
<path d="M0 0 C0.66 0 1.32 0 2 0 C5.80946641 5.65275661 6.72740991 10.22613615 7 17 C4.83034602 13.74551903 3.63856738 10.4746415 2.375 6.8125 C2.14554688 6.15830078 1.91609375 5.50410156 1.6796875 4.83007812 C1.11604856 3.22135865 0.55752016 1.61085023 0 0 Z " fill="#2E0450" transform="translate(183,116)"/>
<path d="M0 0 C-3.14573677 2.09715785 -5.01456251 2.52004559 -8.6875 3.125 C-9.68136719 3.29257813 -10.67523438 3.46015625 -11.69921875 3.6328125 C-12.45847656 3.75398437 -13.21773438 3.87515625 -14 4 C-14 3.34 -14 2.68 -14 2 C-12.42085985 1.46658816 -10.83645613 0.94874237 -9.25 0.4375 C-8.36828125 0.14746094 -7.4865625 -0.14257812 -6.578125 -0.44140625 C-3.92165684 -1.01697435 -2.52968894 -0.89248371 0 0 Z " fill="#EDA2BF" transform="translate(109,127)"/>
<path d="M0 0 C0.99 0.33 1.98 0.66 3 1 C1.35 2.98 -0.3 4.96 -2 7 C-3.32 6.34 -4.64 5.68 -6 5 C-2.25 1.125 -2.25 1.125 0 0 Z " fill="#350631" transform="translate(91,117)"/>
<path d="M0 0 C1.98 0.99 1.98 0.99 4 2 C4 2.66 4 3.32 4 4 C4.66 4 5.32 4 6 4 C6.33 4.99 6.66 5.98 7 7 C5.68 7.33 4.36 7.66 3 8 C3 7.34 3 6.68 3 6 C2.34 6 1.68 6 1 6 C0.67 4.02 0.34 2.04 0 0 Z " fill="#CC88C7" transform="translate(144,79)"/>
<path d="M0 0 C0.66 0 1.32 0 2 0 C4.29013653 3.4352048 4.17842973 4.985331 4 9 C3.01 9.495 3.01 9.495 2 10 C1.67 8.02 1.34 6.04 1 4 C0.01 4.33 -0.98 4.66 -2 5 C-2 4.01 -2 3.02 -2 2 C-1.34 2 -0.68 2 0 2 C0 1.34 0 0.68 0 0 Z " fill="#BB7ACE" transform="translate(138,133)"/>
<path d="M0 0 C0.66 0.33 1.32 0.66 2 1 C2 1.33 2 1.66 2 2 C3.65 2 5.3 2 7 2 C3.7321794 4.17854707 0.61941735 5.49760034 -3 7 C-2.814375 6.38125 -2.62875 5.7625 -2.4375 5.125 C-1.76313824 2.95839822 -1.76313824 2.95839822 -3 1 C-2.01 0.67 -1.02 0.34 0 0 Z " fill="#EBA1B6" transform="translate(89,113)"/>
<path d="M0 0 C-0.33 0.66 -0.66 1.32 -1 2 C-3.5625 2.625 -3.5625 2.625 -6 3 C-6 3.66 -6 4.32 -6 5 C-8.31 5.33 -10.62 5.66 -13 6 C-5.8 0 -5.8 0 0 0 Z " fill="#E5A4C0" transform="translate(97,107)"/>
<path d="M0 0 C2 1 2 1 4 4 C3.01 5.485 3.01 5.485 2 7 C0.68 6.67 -0.64 6.34 -2 6 C-2 5.34 -2 4.68 -2 4 C-2.66 3.34 -3.32 2.68 -4 2 C-2.125 0.9375 -2.125 0.9375 0 0 Z " fill="#401544" transform="translate(81,90)"/>
<path d="M0 0 C1.32 0.33 2.64 0.66 4 1 C4 1.66 4 2.32 4 3 C1.03 4.65 -1.94 6.3 -5 8 C-5.33 6.68 -5.66 5.36 -6 4 C-5.38125 3.896875 -4.7625 3.79375 -4.125 3.6875 C-1.63473516 3.12474627 -1.63473516 3.12474627 0 0 Z " fill="#ECB8CA" transform="translate(75,89)"/>
<path d="M0 0 C0 0.33 0 0.66 0 1 C-4.29 1 -8.58 1 -13 1 C-13 0.34 -13 -0.32 -13 -1 C-7.96488101 -2.0070238 -4.76052962 -1.97387813 0 0 Z " fill="#7D4FCB" transform="translate(189,151)"/>
<path d="M0 0 C2.1446143 2.1446143 2.44564603 3.01739998 3.125 5.875 C3.29257813 6.55304688 3.46015625 7.23109375 3.6328125 7.9296875 C4 10 4 10 4 14 C3.34 14 2.68 14 2 14 C1.66179834 12.4176994 1.32964061 10.83410625 1 9.25 C0.814375 8.36828125 0.62875 7.4865625 0.4375 6.578125 C0 4 0 4 0 0 Z " fill="#7045AA" transform="translate(186,124)"/>
<path d="M0 0 C2.31 0 4.62 0 7 0 C7 1.32 7 2.64 7 4 C2.545 4.495 2.545 4.495 -2 5 C-1.34 3.35 -0.68 1.7 0 0 Z " fill="#B373CF" transform="translate(145,124)"/>
<path d="M0 0 C1.98 0 3.96 0 6 0 C5.67 1.65 5.34 3.3 5 5 C4.01 5 3.02 5 2 5 C2 4.34 2 3.68 2 3 C1.01 3.33 0.02 3.66 -1 4 C-0.67 2.68 -0.34 1.36 0 0 Z " fill="#FBC4CD" transform="translate(66,110)"/>
<path d="M0 0 C0 1.32 0 2.64 0 4 C-2.31 5.32 -4.62 6.64 -7 8 C-7 5 -7 5 -4.625 2.3125 C-2 0 -2 0 0 0 Z " fill="#410935" transform="translate(94,133)"/>
<path d="M0 0 C2.74277578 3.19990508 4.6302836 6.00499382 6 10 C5.34 10.66 4.68 11.32 4 12 C3.34 12 2.68 12 2 12 C2 10.68 2 9.36 2 8 C1.44766217 4.96214196 0.78521863 3.67782794 -1 1 C-0.67 0.67 -0.34 0.34 0 0 Z " fill="#461342" transform="translate(78,126)"/>
<path d="M0 0 C0 1.32 0 2.64 0 4 C-3.3 4 -6.6 4 -10 4 C-9.67 3.34 -9.34 2.68 -9 2 C-2.88888889 0 -2.88888889 0 0 0 Z " fill="#D98CBC" transform="translate(128,112)"/>
<path d="M0 0 C-2.42130331 2.42130331 -3.80111377 2.52840504 -7.125 3.125 C-8.49011719 3.37636719 -8.49011719 3.37636719 -9.8828125 3.6328125 C-10.58148438 3.75398438 -11.28015625 3.87515625 -12 4 C-12 3.01 -12 2.02 -12 1 C-8.0186217 -0.3271261 -4.14954773 -0.06915913 0 0 Z " fill="#EDAAC3" transform="translate(101,99)"/>
<path d="M0 0 C1.2989839 0.90626784 2.58893167 1.82549537 3.875 2.75 C4.59429687 3.26046875 5.31359375 3.7709375 6.0546875 4.296875 C8.08570565 6.07503547 8.97855012 7.52701607 10 10 C6 7 2 4 -2 1 C-1.34 0.67 -0.68 0.34 0 0 Z " fill="#521550" transform="translate(128,120)"/>
<path d="M0 0 C1.98 0.99 1.98 0.99 4 2 C4 3.32 4 4.64 4 6 C5.32 6.33 6.64 6.66 8 7 C7.67 7.99 7.34 8.98 7 10 C4.5 8.1875 4.5 8.1875 2 6 C2 5.01 2 4.02 2 3 C1.34 2.67 0.68 2.34 0 2 C0 1.34 0 0.68 0 0 Z " fill="#C080CA" transform="translate(140,106)"/>
<path d="M0 0 C0 0.99 0 1.98 0 3 C-1.98 3.99 -1.98 3.99 -4 5 C-4.99 3.35 -5.98 1.7 -7 0 C-3.86650268 -1.04449911 -3.01031744 -0.93423645 0 0 Z " fill="#400F39" transform="translate(94,88)"/>
<path d="M0 0 C3.96 1.98 3.96 1.98 8 4 C7.01 4.99 6.02 5.98 5 7 C4.01 6.67 3.02 6.34 2 6 C2 4.68 2 3.36 2 2 C1.34 2 0.68 2 0 2 C0 1.34 0 0.68 0 0 Z " fill="#BB7EBE" transform="translate(148,81)"/>
<path d="M0 0 C4.455 0.99 4.455 0.99 9 2 C7 3 5 4 3 5 C1.5 3.625 1.5 3.625 0 2 C0 1.34 0 0.68 0 0 Z M1 5 C3 6 3 6 3 6 Z " fill="#D289B2" transform="translate(129,74)"/>
<path d="M0 0 C1.4540625 0.0309375 1.4540625 0.0309375 2.9375 0.0625 C2.6075 0.7225 2.2775 1.3825 1.9375 2.0625 C2.9275 2.7225 3.9175 3.3825 4.9375 4.0625 C4.6075 5.0525 4.2775 6.0425 3.9375 7.0625 C3.6075 6.4025 3.2775 5.7425 2.9375 5.0625 C2.009375 4.8459375 2.009375 4.8459375 1.0625 4.625 C-1.42960392 3.96532543 -2.3954446 2.97961371 -4.0625 1.0625 C-3.0625 0.0625 -3.0625 0.0625 0 0 Z " fill="#BE7BC1" transform="translate(135.0625,120.9375)"/>
<path d="M0 0 C0 1.65 0 3.3 0 5 C-2 5 -4 5 -6 5 C-4.87312259 1.61936778 -3.78825335 0 0 0 Z " fill="#350B45" transform="translate(95,119)"/>
<path d="M0 0 C1.65 1.32 3.3 2.64 5 4 C4.67 5.98 4.34 7.96 4 10 C1.16625119 6.79663178 0.4794463 4.21912747 0 0 Z " fill="#360957" transform="translate(179,106)"/>
<path d="M0 0 C1.32 0.66 2.64 1.32 4 2 C1.03 3.32 -1.94 4.64 -5 6 C-5.66 5.34 -6.32 4.68 -7 4 C-6.030625 3.525625 -5.06125 3.05125 -4.0625 2.5625 C-1.19522563 1.29806053 -1.19522563 1.29806053 0 0 Z " fill="#3C1238" transform="translate(78,77)"/>
<path d="M0 0 C2 3.75 2 3.75 2 6 C1.38125 6.144375 0.7625 6.28875 0.125 6.4375 C-2.03258322 6.93152225 -2.03258322 6.93152225 -4 8 C-4 6.35 -4 4.7 -4 3 C-3.01 3.33 -2.02 3.66 -1 4 C-0.67 2.68 -0.34 1.36 0 0 Z " fill="#FCD5DE" transform="translate(40,131)"/>
<path d="M0 0 C0.99 0 1.98 0 3 0 C2.4140625 6.15234375 2.4140625 6.15234375 2 8 C1.01 8.495 1.01 8.495 0 9 C-0.87890625 2.84765625 -0.87890625 2.84765625 -1 1 C-0.67 0.67 -0.34 0.34 0 0 Z " fill="#2E0630" transform="translate(34,127)"/>
<path d="M0 0 C1.1875 1.6875 1.1875 1.6875 2 4 C0.75 6.75 0.75 6.75 -1 9 C-1.66 9 -2.32 9 -3 9 C-2.44271087 5.65626525 -1.64826111 2.96687001 0 0 Z " fill="#E9C5D5" transform="translate(42,116)"/>
<path d="M0 0 C3.3 0.99 6.6 1.98 10 3 C10 3.33 10 3.66 10 4 C6.37 3.67 2.74 3.34 -1 3 C-0.67 2.01 -0.34 1.02 0 0 Z " fill="#440B33" transform="translate(123,87)"/>
<path d="M0 0 C1.98 0 3.96 0 6 0 C6 0.66 6 1.32 6 2 C6.66 2.33 7.32 2.66 8 3 C8.33 3.66 8.66 4.32 9 5 C4.545 4.01 4.545 4.01 0 3 C0 2.01 0 1.02 0 0 Z " fill="#F2A0C2" transform="translate(123,74)"/>
<path d="M0 0 C0.66 0.33 1.32 0.66 2 1 C1.43628586 4.26954202 0.50037734 5.82575883 -2 8 C-2.33 7.01 -2.66 6.02 -3 5 C-1.5625 2.3125 -1.5625 2.3125 0 0 Z " fill="#431140" transform="translate(75,130)"/>
<path d="M0 0 C2.475 0.99 2.475 0.99 5 2 C5 2.99 5 3.98 5 5 C2.69 4.67 0.38 4.34 -2 4 C-1.34 2.68 -0.68 1.36 0 0 Z " fill="#F9C1D3" transform="translate(72,104)"/>
<path d="M0 0 C0.66 0.66 1.32 1.32 2 2 C1.9765625 4.3828125 1.9765625 4.3828125 1.625 7.125 C1.51414062 8.03507813 1.40328125 8.94515625 1.2890625 9.8828125 C1.19367188 10.58148438 1.09828125 11.28015625 1 12 C0.34 12 -0.32 12 -1 12 C-1.08159574 7.83861737 -0.98248524 4.0527516 0 0 Z " fill="#DFA3B8" transform="translate(65,141)"/>
<path d="M0 0 C0.66 0.66 1.32 1.32 2 2 C1.625 4.125 1.625 4.125 1 6 C1 5.34 1 4.68 1 4 C0.34 4 -0.32 4 -1 4 C-1.33 5.98 -1.66 7.96 -2 10 C-2.66 9.01 -3.32 8.02 -4 7 C-2.68 4.69 -1.36 2.38 0 0 Z " fill="#FDD9DA" transform="translate(45,117)"/>
<path d="M0 0 C2 3 2 3 1.625 5.1875 C1.41875 5.785625 1.2125 6.38375 1 7 C-1.46278801 5.768606 -2.42497687 4.21935077 -4 2 C-2.68 1.34 -1.36 0.68 0 0 Z " fill="#EAB9C4" transform="translate(76,81)"/>
<path d="M0 0 C2.0625 1.625 2.0625 1.625 4 4 C3.75 7.25 3.75 7.25 3 10 C1.23899242 6.59538535 0 3.90650339 0 0 Z " fill="#3D0B45" transform="translate(122,138)"/>
<path d="M0 0 C0.33 0.66 0.66 1.32 1 2 C1.66 2 2.32 2 3 2 C3.33 4.64 3.66 7.28 4 10 C0.92436109 8.46218054 0.29677426 6.08755777 -1 3 C-0.67 2.01 -0.34 1.02 0 0 Z " fill="#340532" transform="translate(80,125)"/>
<path d="M0 0 C0.99 0.33 1.98 0.66 3 1 C1.35 2.98 -0.3 4.96 -2 7 C-2.66 6.67 -3.32 6.34 -4 6 C-2.68 4.02 -1.36 2.04 0 0 Z " fill="#2B042B" transform="translate(60,88)"/>
<path d="M0 0 C7.75 -0.125 7.75 -0.125 10 1 C10 1.66 10 2.32 10 3 C8.35 3 6.7 3 5 3 C5 2.34 5 1.68 5 1 C3.35 1 1.7 1 0 1 C0 0.67 0 0.34 0 0 Z " fill="#2F012E" transform="translate(96,86)"/>
<path d="M0 0 C0.928125 0.20625 1.85625 0.4125 2.8125 0.625 C2.8125 1.285 2.8125 1.945 2.8125 2.625 C0.02426345 3.6576802 -1.0552274 3.67009293 -3.9375 2.6875 C-4.68 2.336875 -5.4225 1.98625 -6.1875 1.625 C-3.1875 -0.375 -3.1875 -0.375 0 0 Z " fill="#30073D" transform="translate(104.1875,116.375)"/>
<path d="M0 0 C0.66 0 1.32 0 2 0 C2 2.31 2 4.62 2 7 C1.01 6.34 0.02 5.68 -1 5 C-1 4.34 -1 3.68 -1 3 C-1.66 3 -2.32 3 -3 3 C-2.67 2.34 -2.34 1.68 -2 1 C-1.34 1.33 -0.68 1.66 0 2 C0 1.34 0 0.68 0 0 Z " fill="#9052B2" transform="translate(159,105)"/>
<path d="M0 0 C1.65 1.65 3.3 3.3 5 5 C3.02 5 1.04 5 -1 5 C-0.67 3.35 -0.34 1.7 0 0 Z " fill="#A76DC7" transform="translate(163,91)"/>
</svg>
